<svg xmlns="http://www.w3.org/2000/svg" viewBox="0 0 70 60" enable-background="new 0 0 70 60"><style type="text/css">.st0{fill:#FFFFFF;}</style><path d="M22.7 23.2h-5.3v4.4c0 .2-.1.5-.3.6-.2.2-.4.3-.6.3-.2 0-.4-.1-.6-.3-.2-.2-.3-.4-.3-.6V15.2c0-.2.1-.4.3-.6.2-.2.4-.3.6-.3h6.2c1 0 1.8.3 2.5 1s1 1.5 1 2.5v1.8c0 1-.3 1.8-1 2.5s-1.6 1.1-2.5 1.1zm1.7-5.3c0-.5-.2-.9-.5-1.2-.3-.3-.8-.5-1.2-.5h-5.3v5.3h5.3c.5 0 .9-.2 1.2-.5.3-.3.5-.8.5-1.2v-1.9zM40 28.2c-.2.2-.4.3-.6.3-.2 0-.4-.1-.6-.3-.2-.2-.3-.4-.3-.6v-4c0-.1 0-.2-.1-.3-.1-.1-.2-.1-.3-.1h-6.2c-.1 0-.2 0-.3.1-.1.1-.1.2-.1.3v4c0 .2-.1.5-.3.6-.2.2-.4.3-.6.3-.2 0-.4-.1-.6-.3-.2-.2-.3-.4-.3-.6v-9.7c0-1 .3-1.8 1-2.5s1.5-1 2.5-1h3.5c1 0 1.8.3 2.5 1s1 1.5 1 2.5v9.7c.1.2 0 .4-.2.6zm-1.5-10.3c0-.5-.2-.9-.5-1.2-.3-.3-.8-.5-1.2-.5h-3.5c-.5 0-.9.2-1.2.5-.3.3-.5.8-.5 1.2V21c0 .1 0 .2.1.3.1.1.2.1.3.1h6.2c.1 0 .2 0 .3-.1.1-.1.1-.2.1-.3v-3.1zm15.9 7c0 1-.3 1.8-1 2.5s-1.5 1-2.5 1h-4.4c-.2 0-.5-.1-.6-.3-.2-.2-.3-.4-.3-.6 0-.2.1-.4.3-.6.2-.2.4-.3.6-.3h4.4c.5 0 .9-.2 1.2-.5s.5-.8.5-1.2v-2.2c-.6.3-1.1.5-1.8.5h-3.5c-1 0-1.8-.3-2.5-1s-1-1.5-1-2.5v-4.4c0-.2.1-.4.3-.6.2-.2.4-.3.6-.3.2 0 .5.1.6.3.2.2.3.4.3.6v4.4c0 .5.2.9.5 1.2.3.3.8.5 1.2.5h3.5c.5 0 .9-.2 1.2-.5.3-.3.5-.8.5-1.2v-4.4c0-.2.1-.4.3-.6.2-.2.4-.3.6-.3.2 0 .5.1.6.3.2.2.3.4.3.6v9.6zM40 45c-.2.2-.4.3-.6.3-.2 0-.5-.1-.6-.3-.2-.2-.3-.4-.3-.6v-9.6l-2.8 3.9c-.1.2-.4.3-.7.3-.3 0-.6-.1-.8-.4l-2.8-3.9v9.6c0 .2-.1.5-.3.6-.2.2-.4.3-.6.3-.2 0-.5-.1-.6-.3-.2-.2-.3-.4-.3-.6V32c0-.2.1-.4.3-.6.2-.2.4-.3.6-.3.2 0 .3 0 .4.1s.2.1.2.1.1.1.1.2l3.6 5.1 3.6-5.1c.1-.1.1-.2.2-.2 0 0 .1-.1.2-.1.1-.1.2-.1.4-.1s.4.1.6.3c.2.2.3.4.3.6v12.3c.2.3.1.5-.1.7zm13.5-12.1H46c-.1 0-.2 0-.3.1-.1.1-.1.2-.1.3v3.5c0 .1 0 .2.1.3.1.1.2.1.3.1h5.7c.2 0 .4.1.6.3.2.2.3.4.3.6 0 .2-.1.4-.3.6-.1.3-.3.3-.6.3H46c-.1 0-.2 0-.3.1-.1.1-.1.2-.1.3V43c0 .1 0 .2.1.3.1.1.2.1.3.1h7.5c.2 0 .4.1.6.3.2.2.3.4.3.6 0 .2-.1.4-.3.6-.2.2-.4.3-.6.3h-8.8c-.2 0-.5-.1-.6-.3-.2-.2-.3-.4-.3-.6V32c0-.2.1-.4.3-.6.2-.2.4-.3.6-.3h8.8c.2 0 .4.1.6.3.2.2.3.4.3.6 0 .2-.1.4-.3.6-.2.2-.4.3-.6.3zm-28.1-1.8h-8.9c-.5 0-.8.4-.8.8 0 .5.4.8.8.8h3.6v3.6c0 .5.4.8.8.8s.8-.4.8-.8v-3.6h3.6c.5 0 .8-.4.8-.8.1-.4-.3-.8-.7-.8zm-2.2 9.7c.7 0 1.3.6 1.3 1.3s-.6 1.3-1.3 1.3h-4.5c-.7 0-1.3-.6-1.3-1.3s.6-1.3 1.3-1.3h4.5m0-1.6h-4.5c-1.7 0-3 1.4-3 3s1.4 3 3 3h4.5c1.7 0 3-1.4 3-3s-1.4-3-3-3zM67.5 1.5c.6 0 1 .4 1 1v55c0 .6-.4 1-1 1h-65c-.6 0-1-.4-1-1v-55c0-.6.4-1 1-1h65m0-1.5h-65C1.1 0 0 1.1 0 2.5v55C0 58.9 1.1 60 2.5 60h65c1.4 0 2.5-1.1 2.5-2.5v-55C70 1.1 68.9 0 67.5 0z" class="st0"/></svg>